<svg width="50" height="50" viewBox="0 0 50 50" fill="none" xmlns="http://www.w3.org/2000/svg">
<path d="M6.25 39.0625H3.90625C3.69905 39.0625 3.50034 39.1448 3.35382 39.2913C3.20731 39.4378 3.125 39.6365 3.125 39.8438C3.125 40.051 3.20731 40.2497 3.35382 40.3962C3.50034 40.5427 3.69905 40.625 3.90625 40.625H6.25C6.4572 40.625 6.65591 40.5427 6.80243 40.3962C6.94894 40.2497 7.03125 40.051 7.03125 39.8438C7.03125 39.6365 6.94894 39.4378 6.80243 39.2913C6.65591 39.1448 6.4572 39.0625 6.25 39.0625Z" fill="#614CE1"/>
<path d="M9.375 39.0625H8.59375C8.38655 39.0625 8.18784 39.1448 8.04132 39.2913C7.89481 39.4378 7.8125 39.6365 7.8125 39.8438C7.8125 40.051 7.89481 40.2497 8.04132 40.3962C8.18784 40.5427 8.38655 40.625 8.59375 40.625H9.375C9.5822 40.625 9.78091 40.5427 9.92743 40.3962C10.0739 40.2497 10.1562 40.051 10.1562 39.8438C10.1562 39.6365 10.0739 39.4378 9.92743 39.2913C9.78091 39.1448 9.5822 39.0625 9.375 39.0625Z" fill="#614CE1"/>
<path d="M46.0938 16.4062H44.5312V10.1562C44.5302 9.32778 44.2006 8.53356 43.6148 7.94774C43.0289 7.36192 42.2347 7.03234 41.4062 7.03125H8.59375C7.76523 7.03218 6.97092 7.36172 6.38507 7.94757C5.79922 8.53342 5.46968 9.32773 5.46875 10.1562V24.2188H3.90625C3.07773 24.2197 2.28342 24.5492 1.69757 25.1351C1.11172 25.7209 0.782181 26.5152 0.78125 27.3438V39.8438C0.782181 40.6723 1.11172 41.4666 1.69757 42.0524C2.28342 42.6383 3.07773 42.9678 3.90625 42.9688H11.7188C12.5472 42.9677 13.3414 42.6381 13.9273 42.0523C14.5131 41.4664 14.8427 40.6722 14.8438 39.8438V37.5H21.6553L21.2646 39.0625H18.75C18.5428 39.0625 18.3441 39.1448 18.1976 39.2913C18.0511 39.4378 17.9688 39.6366 17.9688 39.8438V42.1875C17.9688 42.3947 18.0511 42.5934 18.1976 42.7399C18.3441 42.8864 18.5428 42.9688 18.75 42.9688H46.0938C46.9222 42.9677 47.7164 42.6381 48.3023 42.0523C48.8881 41.4664 49.2177 40.6722 49.2188 39.8438V19.5312C49.2177 18.7028 48.8881 17.9086 48.3023 17.3227C47.7164 16.7369 46.9222 16.4073 46.0938 16.4062ZM13.2812 39.8438C13.2807 40.258 13.1159 40.6551 12.823 40.948C12.5301 41.2409 12.133 41.4057 11.7188 41.4062H3.90625C3.49202 41.4057 3.0949 41.2409 2.802 40.948C2.50909 40.6551 2.34429 40.258 2.34375 39.8438V27.3438C2.34429 26.9295 2.50909 26.5324 2.802 26.2395C3.0949 25.9466 3.49202 25.7818 3.90625 25.7812H4.90527L5.50879 27.5908C5.56065 27.7464 5.66014 27.8817 5.79317 27.9776C5.9262 28.0734 6.08602 28.125 6.25 28.125H9.375C9.53898 28.125 9.6988 28.0734 9.83183 27.9776C9.96486 27.8817 10.0644 27.7464 10.1162 27.5908L10.7197 25.7812H11.7188C12.133 25.7818 12.5301 25.9466 12.823 26.2395C13.1159 26.5324 13.2807 26.9295 13.2812 27.3438V39.8438ZM6.55273 25.7812H9.07227L8.81152 26.5625H6.81348L6.55273 25.7812ZM14.8438 35.9375V33.5938H28.9062V35.9375H14.8438ZM28.9062 37.5V39.0625H28.7354L28.3447 37.5H28.9062ZM27.124 39.0625H22.876L23.2666 37.5H26.7334L27.124 39.0625ZM19.5312 41.4062V40.625H29.0049C29.0764 40.8988 29.1848 41.1616 29.3271 41.4062H19.5312ZM28.9062 19.5312V32.0312H14.8438V27.3438C14.8427 26.5153 14.5131 25.7211 13.9273 25.1352C13.3414 24.5494 12.5472 24.2198 11.7188 24.2188H7.03125V10.1562C7.03179 9.74202 7.19659 9.3449 7.48949 9.052C7.7824 8.75909 8.17952 8.59429 8.59375 8.59375H41.4062C41.8205 8.59429 42.2176 8.75909 42.5105 9.052C42.8034 9.3449 42.9682 9.74202 42.9688 10.1562V16.4062H32.0312C31.2028 16.4073 30.4086 16.7369 29.8227 17.3227C29.2369 17.9086 28.9073 18.7028 28.9062 19.5312ZM47.6562 39.8438C47.6557 40.258 47.4909 40.6551 47.198 40.948C46.9051 41.2409 46.508 41.4057 46.0938 41.4062H32.0312C31.617 41.4057 31.2199 41.2409 30.927 40.948C30.6341 40.6551 30.4693 40.258 30.4688 39.8438V19.5312C30.4693 19.117 30.6341 18.7199 30.927 18.427C31.2199 18.1341 31.617 17.9693 32.0312 17.9688H46.0938C46.508 17.9693 46.9051 18.1341 47.198 18.427C47.4909 18.7199 47.6557 19.117 47.6562 19.5312V39.8438Z" fill="#614CE1"/>
<path d="M46.0938 18.75H32.0312C31.824 18.75 31.6253 18.8323 31.4788 18.9788C31.3323 19.1253 31.25 19.324 31.25 19.5312V37.5C31.25 37.7072 31.3323 37.9059 31.4788 38.0524C31.6253 38.1989 31.824 38.2812 32.0312 38.2812H46.0938C46.301 38.2812 46.4997 38.1989 46.6462 38.0524C46.7927 37.9059 46.875 37.7072 46.875 37.5V19.5312C46.875 19.324 46.7927 19.1253 46.6462 18.9788C46.4997 18.8323 46.301 18.75 46.0938 18.75ZM45.3125 36.7188H32.8125V20.3125H45.3125V36.7188Z" fill="#614CE1"/>
<path d="M38.2812 40.625C38.7127 40.625 39.0625 40.2752 39.0625 39.8438C39.0625 39.4123 38.7127 39.0625 38.2812 39.0625C37.8498 39.0625 37.5 39.4123 37.5 39.8438C37.5 40.2752 37.8498 40.625 38.2812 40.625Z" fill="#614CE1"/>
</svg>
