<svg width="40" height="40" viewBox="0 0 40 40" fill="none" xmlns="http://www.w3.org/2000/svg">
<path fill-rule="evenodd" clip-rule="evenodd" d="M19.4073 22.3501C19.5894 22.4485 19.793 22.5001 20 22.5001C20.2069 22.5001 20.4106 22.4485 20.5926 22.3501L36.8426 13.6001C37.0412 13.4931 37.2072 13.3343 37.3229 13.1405C37.4386 12.9468 37.4997 12.7253 37.4997 12.4997C37.4997 12.274 37.4386 12.0526 37.3229 11.8588C37.2072 11.6651 37.0412 11.5063 36.8426 11.3992L20.5926 2.64923C20.4105 2.55096 20.2069 2.49951 20 2.49951C19.7931 2.49951 19.5894 2.55096 19.4073 2.64923L3.15734 11.3992C2.95868 11.5063 2.79271 11.6651 2.67702 11.8588C2.56133 12.0526 2.50024 12.274 2.50024 12.4997C2.50024 12.7253 2.56133 12.9468 2.67702 13.1405C2.79271 13.3343 2.95868 13.4931 3.15734 13.6001L19.4073 22.3501ZM20 19.8305L6.38671 12.5001L20 5.16985L33.6132 12.5001L20 19.8305ZM19.9999 30.0003C19.793 30.0003 19.5893 29.9487 19.4073 29.8503L3.15729 21.1003L4.34254 18.9003L19.9999 27.3306L35.6573 18.9003L36.8425 21.1011L20.5925 29.8511C20.4104 29.9493 20.2068 30.0005 19.9999 30.0003ZM19.9999 37.5003C19.793 37.5003 19.5893 37.4487 19.4073 37.3503L3.15729 28.6003L4.34254 26.4003L19.9999 34.8306L35.6573 26.4003L36.8425 28.6011L20.5925 37.3511C20.4104 37.4493 20.2068 37.5005 19.9999 37.5003Z" fill="#614CE1"/>
<path fill-rule="evenodd" clip-rule="evenodd" d="M19.4073 22.3501C19.5894 22.4485 19.793 22.5001 20 22.5001C20.2069 22.5001 20.4106 22.4485 20.5926 22.3501L36.8426 13.6001C37.0412 13.4931 37.2072 13.3343 37.3229 13.1405C37.4386 12.9468 37.4997 12.7253 37.4997 12.4997C37.4997 12.274 37.4386 12.0526 37.3229 11.8588C37.2072 11.6651 37.0412 11.5063 36.8426 11.3992L20.5926 2.64923C20.4105 2.55096 20.2069 2.49951 20 2.49951C19.7931 2.49951 19.5894 2.55096 19.4073 2.64923L3.15734 11.3992C2.95868 11.5063 2.79271 11.6651 2.67702 11.8588C2.56133 12.0526 2.50024 12.274 2.50024 12.4997C2.50024 12.7253 2.56133 12.9468 2.67702 13.1405C2.79271 13.3343 2.95868 13.4931 3.15734 13.6001L19.4073 22.3501ZM20 19.8305L6.38671 12.5001L20 5.16985L33.6132 12.5001L20 19.8305ZM19.9999 30.0003C19.793 30.0003 19.5893 29.9487 19.4073 29.8503L3.15729 21.1003L4.34254 18.9003L19.9999 27.3306L35.6573 18.9003L36.8425 21.1011L20.5925 29.8511C20.4104 29.9493 20.2068 30.0005 19.9999 30.0003ZM19.9999 37.5003C19.793 37.5003 19.5893 37.4487 19.4073 37.3503L3.15729 28.6003L4.34254 26.4003L19.9999 34.8306L35.6573 26.4003L36.8425 28.6011L20.5925 37.3511C20.4104 37.4493 20.2068 37.5005 19.9999 37.5003Z" fill="white" fill-opacity="0.2"/>
</svg>
