<svg width="50" height="50" viewBox="0 0 50 50" fill="none" xmlns="http://www.w3.org/2000/svg">
<path d="M39.0625 15.625H38.9688C38.5712 12.1991 36.9285 9.03876 34.353 6.74489C31.7775 4.45102 28.4489 3.18359 25 3.18359C21.5511 3.18359 18.2225 4.45102 15.647 6.74489C13.0715 9.03876 11.4288 12.1991 11.0312 15.625H10.9375C8.8655 15.625 6.87836 16.4481 5.41323 17.9132C3.9481 19.3784 3.125 21.3655 3.125 23.4375C3.125 25.5095 3.9481 27.4967 5.41323 28.9618C6.87836 30.4269 8.8655 31.25 10.9375 31.25H14.0625V17.1875C14.0625 14.2867 15.2148 11.5047 17.266 9.45353C19.3172 7.40235 22.0992 6.25001 25 6.25001C27.9008 6.25001 30.6828 7.40235 32.734 9.45353C34.7852 11.5047 35.9375 14.2867 35.9375 17.1875V32.8125C35.9364 34.2441 35.444 35.6319 34.5424 36.744C33.6408 37.856 32.3848 38.6248 30.9844 38.9219C30.5673 37.459 29.631 36.1985 28.351 35.3766C27.071 34.5546 25.5352 34.2277 24.0314 34.4571C22.5277 34.6865 21.1592 35.4564 20.1825 36.6226C19.2057 37.7888 18.6879 39.2711 18.7259 40.7918C18.7639 42.3125 19.3552 43.7671 20.389 44.8831C21.4227 45.999 22.828 46.6996 24.3413 46.8535C25.8547 47.0075 27.3723 46.6042 28.6096 45.7194C29.8469 44.8345 30.719 43.5288 31.0625 42.0469C33.2797 41.7182 35.3057 40.606 36.7734 38.9119C38.241 37.2178 39.0531 35.0539 39.0625 32.8125V31.25C41.1345 31.25 43.1216 30.4269 44.5868 28.9618C46.0519 27.4967 46.875 25.5095 46.875 23.4375C46.875 21.3655 46.0519 19.3784 44.5868 17.9132C43.1216 16.4481 41.1345 15.625 39.0625 15.625ZM6.25 23.4375C6.25 22.1943 6.74386 21.002 7.62294 20.1229C8.50201 19.2439 9.6943 18.75 10.9375 18.75V28.125C9.6943 28.125 8.50201 27.6311 7.62294 26.7521C6.74386 25.873 6.25 24.6807 6.25 23.4375ZM25 43.75C24.3819 43.75 23.7777 43.5667 23.2638 43.2234C22.7499 42.88 22.3494 42.3919 22.1129 41.8209C21.8764 41.2499 21.8145 40.6215 21.935 40.0154C22.0556 39.4092 22.3533 38.8523 22.7903 38.4153C23.2273 37.9783 23.7842 37.6806 24.3903 37.5601C24.9965 37.4395 25.6249 37.5014 26.1959 37.7379C26.7669 37.9744 27.255 38.375 27.5983 38.8889C27.9417 39.4028 28.125 40.0069 28.125 40.625C28.125 41.4538 27.7958 42.2487 27.2097 42.8347C26.6237 43.4208 25.8288 43.75 25 43.75ZM39.0625 28.125V18.75C40.3057 18.75 41.498 19.2439 42.3771 20.1229C43.2561 21.002 43.75 22.1943 43.75 23.4375C43.75 24.6807 43.2561 25.873 42.3771 26.7521C41.498 27.6311 40.3057 28.125 39.0625 28.125Z" fill="#614CE1"/>
</svg>
